<?xml version="1.0" standalone="no"?>
<!DOCTYPE svg PUBLIC "-//W3C//DTD SVG 20010904//EN"
 "http://www.w3.org/TR/2001/REC-SVG-20010904/DTD/svg10.dtd">
<svg version="1.0" xmlns="http://www.w3.org/2000/svg"
 width="729.000000pt" height="729.000000pt" viewBox="0 0 729.000000 729.000000"
 preserveAspectRatio="xMidYMid meet">
<metadata>
Created by potrace 1.14, written by Peter Selinger 2001-2017
</metadata>
<g transform="translate(0.000000,729.000000) scale(0.100000,-0.100000)"
fill="#000000" stroke="none">
<path d="M4002 7254 c-78 -39 -143 -119 -212 -259 -126 -257 -154 -496 -105
-882 l18 -143 -29 -22 c-81 -64 -249 -215 -327 -295 -256 -261 -373 -516 -363
-788 11 -273 150 -538 355 -678 26 -17 48 -34 49 -39 2 -4 10 -8 17 -8 8 0 16
-4 20 -10 6 -9 -54 -8 -71 2 -5 3 -31 9 -59 13 -27 5 -54 9 -60 11 -5 1 -26 4
-45 8 -112 19 -111 18 -110 59 5 129 -66 293 -172 397 -123 122 -304 191 -503
191 -70 0 -184 -36 -263 -83 -96 -58 -198 -197 -218 -297 -7 -36 2 -35 -109
-16 -16 2 -43 7 -60 9 -16 3 -41 8 -55 10 -42 10 -63 13 -110 21 -87 13 -118
25 -123 45 -7 27 -1 14 -74 157 -35 70 -68 130 -72 133 -5 3 -14 16 -21 29
-25 48 -126 152 -204 211 -48 36 -176 105 -276 148 -60 26 -183 67 -193 64 -4
-1 -16 2 -26 7 -10 6 -35 11 -55 13 -20 1 -36 5 -36 8 0 12 -270 18 -331 7
-70 -13 -133 -42 -146 -67 -15 -29 -8 -104 13 -137 8 -13 12 -23 9 -23 -12 0
75 -118 123 -165 97 -98 234 -205 261 -205 6 0 11 -5 11 -11 0 -5 4 -8 9 -5 5
4 11 3 13 -2 5 -12 191 -94 243 -107 6 -1 17 -5 25 -8 8 -4 24 -8 35 -10 11
-1 26 -6 33 -10 6 -5 12 -6 12 -3 0 2 15 0 32 -5 18 -5 47 -12 63 -15 37 -7
64 -12 90 -17 11 -3 40 -8 65 -12 89 -13 79 0 170 -230 45 -112 181 -367 230
-428 156 -198 250 -277 416 -351 161 -71 380 -89 549 -46 22 6 51 13 64 16 13
3 36 11 52 19 15 8 35 15 43 15 8 0 16 3 18 8 2 4 24 18 51 32 26 13 47 28 47
32 0 5 6 8 13 8 6 0 26 14 44 30 18 17 34 30 37 30 2 0 -11 -28 -29 -62 -19
-35 -53 -100 -76 -144 l-43 -82 -38 14 c-21 7 -40 13 -43 14 -3 0 -6 0 -7 1
-21 9 -200 4 -248 -7 -151 -35 -304 -146 -379 -275 -60 -103 -72 -130 -98
-229 -11 -41 -11 -181 1 -231 26 -112 111 -234 220 -316 29 -22 29 -22 11 -49
-10 -15 -33 -57 -52 -93 -145 -273 -137 -262 -179 -266 -30 -2 -155 -18 -164
-20 -3 -1 -30 -5 -60 -10 -59 -9 -69 -11 -72 -15 -2 -1 -11 -3 -20 -6 -10 -2
-24 -6 -30 -8 -7 -2 -24 -7 -38 -12 -36 -11 -197 -93 -212 -107 -7 -7 -23 -20
-36 -29 -35 -24 -113 -100 -170 -165 -28 -32 -64 -74 -81 -93 -17 -19 -31 -38
-31 -42 0 -4 -7 -13 -15 -21 -22 -23 -135 -229 -135 -247 0 -9 -4 -20 -8 -25
-11 -13 -45 -122 -49 -155 -13 -129 -11 -161 11 -186 18 -21 33 -27 86 -31
191 -15 480 149 681 387 49 59 125 168 148 213 8 15 18 27 23 27 4 0 8 6 8 14
0 7 11 30 25 50 13 20 23 36 20 36 -12 0 74 134 88 136 9 1 56 5 104 8 137 9
254 21 308 32 17 3 44 7 60 9 17 1 37 5 45 8 8 3 31 8 50 11 81 12 355 117
380 145 3 4 23 18 46 33 23 14 67 50 99 80 203 187 308 474 273 748 -7 53 -36
167 -49 191 -18 35 6 27 45 -15 183 -194 177 -187 161 -203 -9 -8 -31 -45 -49
-82 -31 -62 -41 -90 -54 -151 -7 -35 -7 -199 0 -230 34 -145 140 -303 263
-395 22 -16 42 -33 45 -37 9 -12 153 -66 195 -73 56 -9 143 -7 184 5 19 5 37
7 40 5 2 -3 13 2 23 12 10 9 18 13 18 9 0 -10 113 51 139 75 11 10 23 19 27
19 3 0 52 -48 108 -107 55 -58 123 -128 149 -155 52 -53 51 -48 27 -163 -40
-188 -45 -409 -11 -498 5 -12 8 -24 8 -27 -3 -41 142 -339 177 -362 6 -4 7 -8
3 -8 -31 0 227 -278 318 -342 100 -69 241 -122 270 -101 62 45 92 189 72 343
-8 66 -41 203 -58 245 -7 17 -13 35 -14 41 -5 21 -67 147 -96 193 -47 75 -86
128 -148 204 -26 31 -122 136 -176 192 l-50 52 28 109 c15 60 32 129 37 154 5
25 11 55 14 66 28 133 40 262 39 404 -2 140 -6 173 -34 280 -21 80 -86 222
-128 280 -61 84 -237 240 -270 240 -6 0 -11 4 -11 9 0 13 -161 82 -225 96 -55
13 -119 19 -208 19 -97 1 -123 9 -67 21 17 4 30 11 30 16 0 5 5 9 10 9 10 0
155 66 213 97 24 12 29 12 42 -1 8 -8 15 -18 15 -21 0 -10 100 -105 110 -105
5 0 10 -4 12 -9 5 -13 108 -67 168 -87 83 -27 293 -25 347 4 10 6 22 10 26 10
18 0 107 37 107 44 0 4 9 8 20 8 11 0 20 5 20 10 0 6 6 10 13 10 12 0 69 44
116 90 56 55 100 130 131 225 13 39 18 199 8 240 -15 61 -22 81 -30 91 -10 13
3 25 50 45 17 8 32 17 32 21 0 5 3 7 8 6 10 -2 40 11 171 76 63 31 121 56 128
56 7 0 52 -22 100 -48 108 -60 218 -112 236 -112 8 0 17 -3 21 -7 3 -4 12 -8
19 -10 181 -44 296 -49 457 -19 14 2 27 5 30 6 3 2 8 2 12 1 16 -2 178 42 243
66 84 31 256 119 284 144 11 11 24 19 28 19 29 0 181 178 177 208 -1 6 -2 19
-3 28 -2 23 -65 79 -124 107 -72 36 -93 43 -154 52 -18 3 -52 9 -75 14 -45 10
-320 7 -378 -4 -19 -3 -56 -13 -83 -20 -26 -8 -51 -14 -55 -15 -12 0 -135 -41
-167 -55 -48 -21 -136 -61 -190 -85 -27 -13 -52 -22 -54 -21 -2 2 -7 -1 -10
-6 -3 -5 -18 -14 -33 -20 -23 -10 -31 -9 -60 10 -36 25 -126 80 -173 107 -124
71 -166 94 -239 129 -89 42 -269 106 -326 116 -93 15 -131 19 -210 18 -47 0
-103 -2 -125 -5 -48 -7 -160 -36 -183 -47 -10 -5 -35 -16 -56 -26 -33 -13
-105 -58 -194 -120 -15 -10 -94 -92 -133 -136 -35 -40 -118 -192 -125 -229 0
-3 -5 -16 -11 -30 -6 -14 -14 -41 -18 -60 l-8 -35 -8 35 c-4 19 -10 60 -13 90
-4 30 -11 84 -16 120 -14 97 -15 94 40 114 28 10 76 35 108 56 218 142 309
391 248 679 -45 215 -206 375 -415 415 -39 7 -88 12 -110 10 -44 -4 -43 -5
-56 96 -3 25 -7 56 -9 70 -3 14 -7 48 -11 75 -3 28 -8 64 -10 80 -18 119 -28
96 103 224 210 207 286 343 328 586 19 110 26 358 13 440 -5 33 -11 71 -13 85
-23 160 -126 366 -191 384 -13 4 -42 -5 -73 -20z m134 -366 c74 -35 79 -197
12 -372 -54 -140 -134 -254 -277 -395 l-96 -94 -11 59 c-12 61 -11 294 1 353
27 134 111 314 182 390 66 72 125 90 189 59z m-378 -1305 c0 -10 5 -58 12
-108 38 -284 39 -258 -7 -274 -182 -63 -333 -283 -333 -484 0 -68 22 -163 52
-220 46 -92 169 -187 241 -187 41 0 31 22 -28 62 -193 129 -162 428 57 537 73
37 86 38 92 9 5 -21 23 -152 31 -223 1 -16 6 -48 9 -70 3 -22 13 -94 21 -160
9 -66 22 -171 31 -234 8 -62 13 -115 12 -117 -14 -13 -228 -21 -290 -11 -154
27 -327 143 -418 283 -69 105 -95 195 -94 324 1 272 130 481 489 794 60 53
112 96 116 96 4 0 7 -8 7 -17z m-3125 -442 c37 -17 76 -40 86 -50 10 -10 23
-20 28 -22 45 -17 233 -225 233 -257 0 -6 4 -12 9 -14 14 -5 122 -219 115
-229 -3 -5 0 -9 5 -9 6 0 11 -4 11 -8 0 -9 -36 -9 -65 0 -11 4 -38 9 -60 13
-100 15 -345 125 -345 155 0 6 -6 10 -13 10 -22 0 -118 87 -183 166 -41 50
-77 129 -76 167 3 115 109 147 255 78z m3372 -207 c55 -16 132 -62 173 -103
69 -70 105 -156 110 -262 7 -141 -24 -239 -103 -327 -40 -44 -139 -107 -155
-97 -4 3 -10 31 -14 62 -4 32 -8 69 -11 83 -2 14 -6 48 -10 75 -3 28 -10 82
-16 120 -5 39 -12 84 -14 100 -16 127 -27 204 -30 224 -3 14 -7 51 -10 82 l-6
56 33 -3 c18 -2 42 -7 53 -10z m-1280 -370 c39 -15 72 -31 73 -36 2 -4 10 -8
17 -8 17 0 115 -92 115 -108 0 -7 3 -12 8 -12 17 0 59 -126 57 -175 0 -22 -12
-23 -95 -9 -25 4 -51 7 -57 7 -7 0 -13 4 -13 9 0 5 -3 7 -8 4 -4 -2 -30 0 -57
5 -75 14 -107 20 -135 24 -29 5 -66 12 -137 26 -28 5 -64 12 -80 13 -15 2 -28
5 -28 6 0 2 -31 8 -75 14 -42 6 -75 13 -101 21 -17 6 -18 9 -7 22 7 9 21 32
30 52 10 20 17 32 18 28 0 -5 12 6 28 25 15 18 31 35 35 36 4 2 20 14 35 26
24 20 85 46 137 60 50 12 172 -2 240 -30z m-1110 -190 c22 -3 60 -10 85 -15
25 -5 61 -12 80 -14 19 -3 50 -10 69 -15 19 -5 38 -7 43 -4 4 3 8 2 9 -3 0 -4
2 -26 4 -48 5 -55 11 -83 28 -130 30 -80 42 -105 49 -105 4 0 8 -7 8 -15 0 -8
5 -15 10 -15 6 0 10 -5 10 -11 0 -6 27 -37 60 -68 66 -63 156 -114 235 -132
66 -15 185 -15 213 0 12 6 22 9 22 6 0 -11 116 54 146 83 74 68 81 146 8 82
-125 -110 -313 -97 -424 28 -52 60 -52 59 -72 107 -16 39 -18 55 -21 125 -2
31 1 35 23 34 31 -2 100 -13 109 -18 3 -2 29 -7 56 -10 28 -4 57 -9 65 -11 8
-2 30 -7 48 -10 17 -3 47 -7 65 -10 17 -3 39 -8 48 -11 9 -2 32 -7 50 -9 19
-3 45 -7 59 -11 14 -3 36 -7 50 -9 14 -2 25 -4 25 -5 0 -1 11 -3 25 -5 34 -4
90 -14 120 -20 14 -3 36 -8 50 -11 13 -3 26 -6 27 -8 2 -2 -22 -117 -33 -161
-3 -11 -6 -26 -6 -32 -1 -7 -5 -13 -10 -13 -4 0 -8 -8 -8 -18 0 -53 -170 -253
-241 -284 -16 -7 -29 -16 -29 -19 0 -12 -134 -61 -201 -74 -174 -33 -352 17
-513 145 -29 22 -136 134 -136 141 0 3 -9 17 -21 30 -41 47 -158 266 -208 390
-8 18 -27 62 -42 96 -16 34 -29 65 -29 68 0 3 12 3 28 0 15 -2 45 -7 67 -11z
m3285 -198 c14 -4 36 -8 50 -11 96 -18 448 -180 472 -218 4 -7 8 -8 8 -3 0 4
16 -4 35 -18 19 -15 35 -24 35 -20 0 3 7 0 16 -7 9 -7 25 -18 37 -24 11 -5 22
-14 23 -20 3 -11 -108 -68 -132 -68 -7 0 -11 -4 -8 -9 3 -4 -1 -8 -8 -8 -7 0
-39 -13 -70 -29 -32 -16 -58 -27 -58 -23 0 4 -4 2 -8 -3 -4 -6 -19 -16 -34
-22 -24 -11 -29 -10 -38 7 -30 56 -138 136 -229 171 -245 92 -519 -5 -617
-217 -27 -58 -37 -144 -23 -182 9 -22 12 -24 24 -11 8 8 16 27 17 42 1 15 6
27 11 27 4 0 5 5 2 11 -8 12 37 85 74 117 80 72 204 96 313 61 61 -20 131 -62
121 -73 -4 -3 0 -6 8 -6 8 -1 24 -17 37 -37 17 -27 20 -38 11 -49 -6 -8 -16
-14 -22 -14 -5 0 -55 -22 -111 -49 -55 -27 -159 -77 -231 -111 -71 -34 -184
-88 -250 -120 l-120 -57 -28 53 c-80 156 -99 317 -57 475 12 42 59 151 68 159
4 3 13 17 21 31 20 40 107 126 165 165 58 38 173 87 186 79 5 -3 11 -2 14 3 2
4 22 9 42 10 21 2 40 5 43 7 5 6 178 -2 211 -9z m-1767 -80 c15 -4 39 -9 55
-12 15 -3 36 -7 47 -9 17 -2 48 -8 160 -29 11 -2 40 -7 65 -11 50 -8 192 -53
200 -64 3 -3 18 -13 34 -21 51 -26 134 -117 140 -153 1 -7 5 -18 9 -24 14 -22
15 -125 2 -178 -18 -78 -73 -170 -127 -213 -14 -11 -12 -1 7 54 18 52 23 84
21 138 -4 80 -12 124 -28 143 -6 7 -7 13 -2 13 5 0 4 4 -1 8 -6 4 -23 26 -38
50 -33 51 -65 82 -151 146 -22 16 -36 23 -31 16 5 -8 -5 -5 -21 7 -24 16 -66
32 -89 34 -3 0 -25 6 -50 13 -25 8 -43 11 -41 8 2 -4 -15 -6 -37 -5 -52 2
-126 -19 -182 -52 l-42 -24 15 42 c8 23 17 60 19 82 5 37 19 59 33 50 4 -2 18
-6 33 -9z m3552 -10 c173 -40 245 -93 245 -180 0 -68 -85 -130 -198 -143 -96
-12 -214 -7 -302 11 -80 17 -316 112 -340 136 -3 3 -22 14 -43 25 -21 11 -40
23 -43 26 -10 16 226 109 316 124 19 3 36 8 38 10 6 6 295 -2 327 -9z m-2717
-84 c1 -15 6 -58 12 -97 5 -38 12 -88 15 -110 2 -22 8 -62 12 -90 14 -103 9
-277 -10 -334 -48 -142 -153 -219 -307 -226 -62 -2 -141 14 -185 38 l-30 16
63 2 c58 1 78 3 85 9 1 1 10 3 19 5 70 13 196 114 233 187 82 161 91 321 28
461 -12 26 -49 73 -81 105 l-60 57 58 -1 c32 -1 73 1 92 5 44 10 53 6 56 -27z
m-600 -95 c20 -6 44 -16 52 -22 8 -6 27 -16 43 -23 15 -6 27 -16 27 -22 0 -5
5 -10 10 -10 9 0 40 -30 67 -65 20 -26 40 -62 45 -82 5 -19 0 -17 -39 13 -78
59 -127 76 -233 79 -85 2 -109 -4 -199 -48 -57 -28 -219 -167 -195 -167 4 0
-2 -10 -13 -22 -19 -22 -50 -91 -59 -133 -11 -47 -4 -171 10 -193 4 -7 4 -12
1 -12 -8 0 -69 44 -73 53 -2 4 -7 5 -11 3 -3 -2 -21 8 -39 22 l-32 27 22 35
c12 19 22 37 23 40 1 6 28 57 58 109 11 20 36 65 55 101 91 169 162 250 263
298 67 32 147 39 217 19z m-72 -249 c4 -6 3 -8 -3 -5 -22 14 -163 -148 -164
-188 0 -2 -6 -19 -14 -37 -33 -80 -10 -246 51 -361 22 -44 35 -61 91 -122 24
-26 96 -75 111 -75 7 0 12 -5 12 -11 0 -5 4 -7 10 -4 5 3 18 1 29 -5 11 -5 47
-11 81 -13 51 -2 58 -4 43 -14 -10 -7 -23 -17 -30 -23 -7 -5 -15 -10 -18 -10
-3 0 -25 -18 -47 -40 -23 -22 -45 -40 -49 -40 -4 0 -29 23 -56 52 -26 28 -73
77 -103 108 -154 159 -188 200 -230 275 -28 51 -59 166 -50 190 4 11 6 29 4
39 -1 11 0 25 4 30 3 6 7 17 8 24 4 26 54 99 92 134 43 39 104 74 167 94 51
16 52 16 61 2z m1722 -197 c6 -16 8 -60 6 -98 -7 -95 -6 -93 -17 -93 -6 0 -7
-3 -4 -6 4 -4 -8 -34 -25 -66 -31 -58 -119 -148 -145 -148 -7 0 -13 -5 -13
-12 0 -6 -3 -8 -7 -5 -3 4 -11 3 -17 -2 -21 -18 -128 -43 -193 -46 -110 -4
-203 30 -280 104 -24 22 -43 43 -43 46 0 3 30 19 68 36 37 17 111 53 165 80
53 27 97 45 97 41 0 -4 4 -2 8 3 6 9 99 59 112 61 3 0 53 23 111 52 59 29 111
52 117 52 5 0 15 7 22 15 18 22 27 19 38 -14z m-1755 -193 c44 -89 124 -159
222 -193 73 -26 225 -29 307 -6 125 34 219 108 267 211 26 54 41 67 41 34 0
-7 5 -25 12 -41 6 -15 12 -30 13 -33 0 -3 8 -19 18 -37 16 -30 16 -31 -8 -47
-13 -9 -27 -16 -30 -16 -2 0 -59 -26 -124 -59 -66 -32 -122 -56 -125 -53 -4 3
-6 0 -6 -6 0 -7 -9 -12 -20 -12 -11 0 -20 -3 -20 -8 0 -10 -122 -53 -190 -66
-157 -32 -303 33 -371 166 -27 52 -46 143 -44 204 3 66 17 91 26 47 3 -18 18
-56 32 -85z m-681 -10 c31 -7 31 -16 -3 -75 -18 -32 -33 -60 -32 -63 0 -3 -8
-17 -18 -32 -10 -14 -19 -28 -19 -31 0 -2 -46 -89 -103 -193 -56 -104 -118
-219 -137 -256 -19 -38 -39 -68 -44 -68 -25 0 -111 118 -127 174 -9 31 -23
122 -21 141 16 182 170 366 338 403 37 9 128 8 166 0z m149 -54 c19 -10 55
-32 82 -50 26 -19 50 -34 54 -34 26 0 181 -206 189 -252 1 -5 3 -10 4 -13 1
-3 3 -8 5 -12 1 -5 5 -15 8 -23 30 -66 41 -239 23 -325 -12 -53 -37 -125 -47
-130 -5 -4 -9 -15 -9 -26 0 -10 -3 -19 -8 -19 -4 0 -15 -15 -25 -32 -64 -118
-285 -268 -447 -303 -8 -2 -15 -4 -15 -5 0 -2 -42 -12 -130 -30 -27 -5 -74
-12 -102 -15 -29 -2 -65 -7 -80 -9 -25 -5 -66 -9 -210 -21 -49 -4 -54 6 -23
45 11 14 20 33 20 43 0 9 3 17 8 17 4 0 12 10 18 23 24 52 98 183 112 199 9
11 19 15 26 9 22 -17 176 -29 231 -17 94 20 173 53 230 96 87 66 173 189 191
275 11 54 13 154 3 192 -20 77 -70 153 -100 153 -23 0 -23 -3 -5 -43 24 -52
33 -99 30 -149 -3 -52 -40 -148 -57 -148 -6 0 -8 -3 -5 -6 8 -7 -60 -73 -93
-90 -54 -27 -115 -44 -166 -44 -65 0 -143 20 -143 37 0 6 16 39 35 72 19 32
35 61 35 64 0 3 31 60 68 128 38 68 95 174 127 234 32 61 63 113 68 116 5 3 8
9 8 13 -1 10 43 96 49 96 4 0 22 -7 41 -16z m1357 -328 c5 -3 24 -8 42 -11 19
-3 39 -10 45 -15 5 -4 12 -8 15 -8 7 1 104 -45 110 -51 3 -4 22 -19 43 -34 55
-41 84 -74 131 -147 54 -83 81 -148 103 -250 20 -94 19 -290 -2 -401 -3 -13
-7 -41 -10 -64 -4 -22 -10 -56 -15 -75 -5 -19 -11 -46 -14 -60 -7 -39 -37
-173 -42 -189 -4 -13 -60 40 -212 203 l-62 67 17 27 c10 15 20 29 24 32 10 8
46 112 54 155 13 73 7 208 -12 255 -3 8 -7 20 -9 27 -4 19 -47 106 -64 128
-34 44 -112 113 -158 138 -75 41 -187 61 -252 44 -55 -13 -100 -41 -87 -53 3
-3 43 -7 89 -8 67 -2 92 -7 128 -27 112 -61 170 -165 165 -299 -1 -36 -3 -65
-4 -65 -2 0 -4 -9 -6 -21 -7 -37 -61 -124 -76 -124 -6 0 -42 34 -82 76 -40 42
-98 103 -129 136 -32 32 -58 64 -58 69 0 6 -3 9 -7 7 -5 -2 -20 9 -35 24 -15
15 -25 28 -24 28 2 0 -26 31 -63 69 -36 37 -91 95 -122 128 l-57 59 37 35 c54
52 126 109 140 109 6 0 11 4 11 8 0 10 90 52 111 52 8 0 20 5 27 12 7 7 12 10
12 7 0 -3 26 0 58 6 55 12 222 12 240 1z m-298 -696 c85 -90 161 -169 168
-176 12 -12 5 -18 -41 -38 -67 -30 -158 -49 -180 -38 -5 2 -28 5 -51 7 -101 6
-231 106 -295 226 -72 135 -75 251 -8 384 l19 39 117 -121 c64 -66 186 -194
271 -283z m-2087 -626 c-3 -8 -10 -14 -16 -14 -6 0 -7 -3 -4 -6 22 -22 -205
-324 -244 -324 -5 0 -9 -4 -9 -8 0 -4 -13 -16 -30 -25 -16 -10 -35 -24 -43
-31 -18 -18 -187 -109 -187 -100 0 3 -6 1 -13 -5 -32 -26 -149 -31 -194 -7
-39 20 -51 35 -58 75 -6 36 11 101 26 101 6 0 7 4 4 10 -3 5 5 21 19 35 14 14
22 25 19 25 -3 0 7 10 23 22 16 12 31 25 34 28 21 23 103 79 167 112 75 40
229 90 315 103 175 27 199 28 191 9z m3073 -404 c92 -105 96 -111 125 -156
144 -220 200 -557 111 -659 -33 -37 -57 -44 -129 -36 -16 1 -103 88 -103 103
0 6 -6 19 -14 27 -14 17 -51 112 -62 158 -35 160 -39 375 -9 483 2 8 7 30 10
49 3 19 10 42 15 51 5 10 6 21 2 26 -4 5 2 2 13 -6 11 -8 29 -26 41 -40z"/>
</g>
</svg>
